<svg width="79" height="79" xmlns="http://www.w3.org/2000/svg">

 <g>
  <title>background</title>
  <rect fill="none" id="canvas_background" height="81" width="81" y="-1" x="-1"/>
 </g>
 <g>
  <title>Layer 1</title>
  <path id="svg_1" d="m39.408756,0.204064c-21.367,0 -38.75,17.384 -38.75,38.751c0,7.399 2.093,14.577 6.058,20.794l-6.277,16.49c-0.156,0.409 -0.05,0.87 0.268,1.17c0.205,0.194 0.472,0.296 0.742,0.296c0.149,0 0.3,-0.03 0.442,-0.094l15.361,-6.875c6.524,4.562 14.172,6.969 22.157,6.969c21.368,0 38.751,-17.384 38.751,-38.75c-0.001,-21.367 -17.384,-38.751 -38.752,-38.751zm-2.437,49.546l-16.362,0l0,-21.591l15.835,0l0,3.823l-11.426,0l0,4.585l10.488,0l0,3.75l-10.488,0l0,5.552l11.953,0l0,3.881zm20.947,0l-4.51,0l-8.791,-15.32l0,15.32l-4.203,0l0,-21.591l4.729,0l8.572,15.055l0,-15.055l4.203,0l0,21.591z"/>
  <text id="svg_2" font-family="'Helvetica Neue', Helvetica, Arial-Unicode, Arial, Sans-serif" font-weight="bold" font-size="5px" fill="#000000" y="115" x="0">Created by corpus delicti</text>
  <text id="svg_3" font-family="'Helvetica Neue', Helvetica, Arial-Unicode, Arial, Sans-serif" font-weight="bold" font-size="5px" fill="#000000" y="120" x="0">from the Noun Project</text>
 </g>
</svg>