<svg width="500" height="500" xmlns="http://www.w3.org/2000/svg">

 <g>
  <title>background</title>
  <rect fill="none" id="canvas_background" height="402" width="582" y="-1" x="-1"/>
 </g>
 <g>
  <title>Layer 1</title>
  <path id="svg_2" d="m21.4,28l457.7,0l0,445.3l-457.7,0l0,-445.3zm-20.8,466.1l499.4,0l0,-486.9l-499.4,0l0,486.9zm327.1,-313.3c0,-1.7 0.6,-2.5 2.5,-2.5l32.7,0c1.7,0 2.5,0.6 2.5,2.5l0,164.2c0,1.7 -0.4,2.5 -2.5,2.5l-32.3,0c-2.1,0 -2.7,-1 -2.7,-2.7l0,-164l-0.2,0l0,0zm-2.3,-47.3c0,-13.3 9.4,-21.2 21.2,-21.2c12.7,0 21.2,8.5 21.2,21.2c0,13.7 -8.9,21.2 -21.6,21.2c-12,0.1 -20.8,-7.4 -20.8,-21.2zm-93.6,115.7c-5.8,-23.1 -19.6,-73.4 -24.8,-97.8l-0.4,0c-4.4,24.3 -15.4,65.5 -24.1,97.8l49.3,0l0,0zm-57.8,33.7l-16.4,62.4c-0.4,1.7 -1,2.1 -3.1,2.1l-30.6,0c-2.1,0 -2.5,-0.6 -2.1,-3.1l59.1,-206.8c1,-3.7 1.7,-7.1 2.1,-17.3c0,-1.5 0.6,-2.1 1.7,-2.1l43.7,0c1.5,0 2.1,0.4 2.5,2.1l66.2,224.5c0.4,1.7 0,2.7 -1.7,2.7l-34.5,0c-1.7,0 -2.7,-0.4 -3.1,-1.9l-17.1,-62.6l-66.7,0l0,0z" fill="#FF7F18"/>
 </g>
</svg>