<svg width="79" height="79" xmlns="http://www.w3.org/2000/svg">

 <g>
  <title>background</title>
  <rect fill="none" id="canvas_background" height="81" width="81" y="-1" x="-1"/>
 </g>
 <g>
  <title>Layer 1</title>
  <polygon id="svg_1" points="45.01337909698486,41.45975399017334 50.54437732696533,41.45975399017334 47.8153772354126,32.96375560760498 "/>
  <path id="svg_2" d="m39.585379,0.335755c-21.367,0 -38.751,17.384 -38.751,38.751c0,7.399 2.093,14.577 6.058,20.795l-6.277,16.49c-0.156,0.409 -0.05,0.87 0.268,1.17c0.205,0.194 0.472,0.296 0.742,0.296c0.149,0 0.3,-0.03 0.442,-0.094l15.361,-6.875c6.524,4.562 14.172,6.969 22.157,6.969c21.368,0 38.751,-17.384 38.751,-38.751s-17.383,-38.751 -38.751,-38.751zm-5.224,42.721c0,1.836 -0.311,3.291 -0.931,4.365c-1.05,1.816 -2.946,2.725 -5.686,2.725c-2.741,0 -4.579,-0.735 -5.515,-2.205c-0.936,-1.47 -1.403,-3.474 -1.403,-6.013l0,-0.498l4.263,0l0,0.498c0.037,1.67 0.208,2.844 0.516,3.522c0.307,0.679 0.965,1.019 1.974,1.019c1,0 1.661,-0.371 1.981,-1.113c0.193,-0.439 0.289,-1.182 0.289,-2.227l0,-15.103l4.512,0l0,15.03zm18.8,6.562l-1.424,-4.438l-7.951,0l-1.464,4.438l-4.719,0l7.708,-21.592l5.104,0l7.639,21.592l-4.893,0z"/>
  <text id="svg_3" font-family="'Helvetica Neue', Helvetica, Arial-Unicode, Arial, Sans-serif" font-weight="bold" font-size="5px" fill="#000000" y="115" x="0">Created by corpus delicti</text>
  <text id="svg_4" font-family="'Helvetica Neue', Helvetica, Arial-Unicode, Arial, Sans-serif" font-weight="bold" font-size="5px" fill="#000000" y="120" x="0">from the Noun Project</text>
 </g>
</svg>