<svg width="79" height="79" xmlns="http://www.w3.org/2000/svg">

 <g>
  <title>background</title>
  <rect fill="none" id="canvas_background" height="81" width="81" y="-1" x="-1"/>
 </g>
 <g>
  <title>Layer 1</title>
  <path id="svg_1" d="m39.796336,0.920679c-21.367,0 -38.75,17.384 -38.75,38.751c0,0.506 0.034,1.009 0.054,1.513c-0.281,0.94 -0.246,1.996 0.24,3.088c0.685,5.754 2.628,11.275 5.764,16.193l-6.277,16.49c-0.156,0.409 -0.05,0.87 0.268,1.17c0.205,0.194 0.472,0.296 0.742,0.296c0.149,0 0.3,-0.03 0.442,-0.094l15.361,-6.875c6.524,4.562 14.172,6.969 22.157,6.969c21.368,0 38.75,-17.384 38.75,-38.75c0,-21.367 -17.383,-38.751 -38.751,-38.751zm-7.623,49.576l-6.653,-9.425l-2.173,2.204l0,7.222l-4.438,0l0,-21.593l4.438,0l0,8.896l8.342,-8.896l5.83,0l-8.861,8.881l9.315,12.711l-5.8,0zm24.955,-1.919c-1.631,1.68 -3.99,2.52 -7.076,2.52s-5.443,-0.84 -7.075,-2.52c-2.188,-2.061 -3.281,-5.029 -3.281,-8.907c0,-3.955 1.094,-6.924 3.281,-8.906c1.632,-1.68 3.989,-2.52 7.075,-2.52s5.445,0.84 7.076,2.52c2.178,1.982 3.266,4.951 3.266,8.906c0,3.878 -1.088,6.846 -3.266,8.907z"/>
  <path id="svg_2" d="m50.052336,32.068679c-1.787,0 -3.213,0.659 -4.277,1.978s-1.596,3.193 -1.596,5.625c0,2.432 0.531,4.307 1.596,5.625s2.49,1.978 4.277,1.978s3.205,-0.659 4.256,-1.978c1.049,-1.318 1.574,-3.193 1.574,-5.625c0,-2.422 -0.525,-4.294 -1.574,-5.617c-1.051,-1.324 -2.469,-1.986 -4.256,-1.986z"/>
  <text id="svg_3" font-family="'Helvetica Neue', Helvetica, Arial-Unicode, Arial, Sans-serif" font-weight="bold" font-size="5px" fill="#000000" y="115" x="0">Created by corpus delicti</text>
  <text id="svg_4" font-family="'Helvetica Neue', Helvetica, Arial-Unicode, Arial, Sans-serif" font-weight="bold" font-size="5px" fill="#000000" y="120" x="0">from the Noun Project</text>
 </g>
</svg>