<svg width="500" height="500" xmlns="http://www.w3.org/2000/svg">

 <g>
  <title>background</title>
  <rect fill="none" id="canvas_background" height="402" width="582" y="-1" x="-1"/>
 </g>
 <g>
  <title>Layer 1</title>
  <path id="svg_2" d="m21.4,27.3l457.5,0l0,445l-457.5,0l0,-445zm-20.8,465.8l499,0l0,-486.6l-499,0l0,486.6zm336.5,-286.9c-16.4,0 -22,8.3 -22,15.2c0,7.5 3.7,12.7 25.8,24.1c32.6,15.8 42.8,31 42.8,53.2c0,33.3 -25.4,51.2 -59.7,51.2c-18.1,0 -33.7,-3.7 -42.6,-8.9c-1.5,-0.6 -1.7,-1.7 -1.7,-3.3l0,-30.7c0,-2.1 1,-2.7 2.5,-1.7c13.1,8.5 28.1,12.3 41.8,12.3c16.4,0 23.3,-6.9 23.3,-16.2c0,-7.5 -4.8,-14.1 -25.8,-25c-29.5,-14.1 -41.8,-28.4 -41.8,-52.4c0,-26.8 21,-49.1 57.4,-49.1c17.9,0 30.4,2.7 37.2,5.8c1.7,1 2.1,2.7 2.1,4.2l0,28.5c0,1.7 -1,2.7 -3.1,2.1c-9.2,-5.8 -22.7,-9.3 -36.2,-9.3l0,0zm-178.8,24.7c4.8,0.4 8.5,0.4 16.8,0.4c24.3,0 47.2,-8.5 47.2,-41.6c0,-26.4 -16.4,-39.7 -44.1,-39.7c-8.3,0 -16.2,0.4 -20,0.6l0.1,80.3l0,0zm-37.1,-110.4c0,-1.5 2.9,-2.5 4.6,-2.5c13.3,-0.6 33.1,-1 53.6,-1c57.6,0 80.1,31.6 80.1,71.9c0,52.8 -38.3,75.5 -85.3,75.5c-7.9,0 -10.6,-0.4 -16.2,-0.4l0,79.8c0,1.7 -0.6,2.5 -2.5,2.5l-31.8,0c-1.7,0 -2.5,-0.6 -2.5,-2.5l0,-223.3l0,0z" fill="#31C5F0"/>
 </g>
</svg>